{
	"asset":{
		"generator":"Khronos glTF Blender I/O v4.0.44",
		"version":"2.0"
	},
	"extensionsUsed":[
		"KHR_materials_specular",
		"KHR_materials_ior"
	],
	"scene":0,
	"scenes":[
		{
			"name":"Scene",
			"nodes":[
				0
			]
		}
	],
	"nodes":[
		{
			"mesh":0,
			"name":"Dog",
			"scale":[
				0.3314034342765808,
				0.3314034342765808,
				0.3314034342765808
			]
		}
	],
	"materials":[
		{
			"doubleSided":true,
			"extensions":{
				"KHR_materials_specular":{
					"specularFactor":0
				},
				"KHR_materials_ior":{
					"ior":1.4500000476837158
				}
			},
			"name":"Dog",
			"pbrMetallicRoughness":{
				"baseColorFactor":[
					0.800000011920929,
					0.800000011920929,
					0.800000011920929,
					1
				],
				"metallicFactor":0
			}
		}
	],
	"meshes":[
		{
			"name":"Dog",
			"primitives":[
				{
					"attributes":{
						"POSITION":0,
						"NORMAL":1,
						"TEXCOORD_0":2
					},
					"indices":3,
					"material":0
				}
			]
		}
	],
	"accessors":[
		{
			"bufferView":0,
			"componentType":5126,
			"count":9763,
			"max":[
				6.669000148773193,
				35.33449935913086,
				26.791799545288086
			],
			"min":[
				-6.669000148773193,
				-0.14880000054836273,
				-26.791799545288086
			],
			"type":"VEC3"
		},
		{
			"bufferView":1,
			"componentType":5126,
			"count":9763,
			"type":"VEC3"
		},
		{
			"bufferView":2,
			"componentType":5126,
			"count":9763,
			"type":"VEC2"
		},
		{
			"bufferView":3,
			"componentType":5123,
			"count":55668,
			"type":"SCALAR"
		}
	],
	"bufferViews":[
		{
			"buffer":0,
			"byteLength":117156,
			"byteOffset":0,
			"target":34962
		},
		{
			"buffer":0,
			"byteLength":117156,
			"byteOffset":117156,
			"target":34962
		},
		{
			"buffer":0,
			"byteLength":78104,
			"byteOffset":234312,
			"target":34962
		},
		{
			"buffer":0,
			"byteLength":111336,
			"byteOffset":312416,
			"target":34963
		}
	],
	"buffers":[
		{
			"byteLength":423752,
			"uri":"dogo.bin"
		}
	]
}
